<svg version="1.2" xmlns="http://www.w3.org/2000/svg" viewBox="0 0 1348 1138" width="1348" height="1138"><style>.a{fill:#ba1b02}</style><path class="a" d="m688 247.6l-14.4 6.9-14.4-6.9-201.3-99.7 95.4-36.5 206.5 100.5zm201.5-99.8l-72 35.1-208.9-93.1 65-25.1z"/><path class="a" d="m681.4 0.3l264.1 102.4-37.1 29.8-234.8-91.2-234.8 91.2-37.1-29.8 264.3-102.4h15.4zm233.2 141l43.7-16.9-32.9 271.5-6.6 12.1-231.8 208.9-7.5-48.1 206.5-185.9zm-486.2 266.7l-6.6-12.1-32.9-271.5 43.7 16.9 28.8 241.8 206.3 186-7.3 47.8z"/><path class="a" d="m823.1 191.5l66.6-40.8-26.2 218.7-188.5 170 10.4-263.4 82.7-50.9-5.5 129.1 51.5-36.2z"/><path class="a" d="m661.8 276l10.4 263.2-188.3-169.8-26.5-218.7z"/><path fill-rule="evenodd" class="a" d="m1297.4 1000.2v-27.2c0-23.1-23.5-34.9-48.8-34.4-18.5 0-37.5 6.3-49.2 19.5l-28.1-29c25.3-28.1 53.8-34.9 83.7-34.9 45.6 0 92.2 24.5 92.2 77.5v150.4c-21.7 8.2-54.3 15.9-88.6 15.9-48.9 0-95.4-15.9-95.4-71.6 0-51.7 43.4-75.2 86.8-75.2 16.7 0 33.9 3.1 47.4 9zm0 39c-9.9-4.5-25.3-8.2-40.2-8.2-28.9 0-45.2 14.5-45.2 34.9 0 22.2 20.8 30.4 43.4 30.4 16.3 0 31.2-2.3 42-5zm-141 97.5c-6.3 0.9-12.7 1.3-18.5 1.3-46.1 0-82.8-24.5-82.8-83.8v-210.8h44.8l4.5 55.3h44.8v45.4h-44.8v109.6c0 37.2 24.9 39.4 52 39.4zm-133.4-46.6c-18 32.2-53.3 48-84 48-46.2 0-92.7-26.7-92.7-80.7v-82.4c0-54.9 46.5-80.7 92.7-80.7 44.7 0 91.3 25.8 91.3 80.7v64.3h-133.8v16.3c0 21.3 20.3 34 41.5 34 17.2 0 34.9-5.9 43.4-23.5zm-40.6-114.2c0-21.8-21.3-33.1-43-33.1-22.1 0-43.8 10.8-42.9 34v21.3h85.9zm-191.3-77.1h62.4l-97.6 108.3 97.2 126.5h-58.4l-73.6-96.1-14 14v82.1h-49.8v-320.9h49.8v180.8zm-338.6 158.6v-82.4c0-54.4 46.5-80.7 92.2-80.7 36.6 0 78.2 16.8 90.8 61.6l-45.2 17.3c-5.8-20.9-24.4-30.4-43.4-30.4-21.2 0-44.7 11.3-44.7 31.7v83.4c0 20.4 20.8 31.7 42.5 31.7 19.4 0 39.8-9.5 45.6-30.3l46.2 17.2c-12.7 44.9-55.2 61.6-91.8 61.6-45.7 0-92.2-26.3-92.2-80.7zm-76.9-57.1v-27.2c0-23.1-23.5-34.8-48.8-34.4-18.5 0-37.5 6.4-49.3 19.5l-28-29c25.3-28.1 53.8-34.9 83.6-34.9 45.7 0 92.2 24.5 92.2 77.5v150.5c-21.7 8.1-54.2 15.8-88.6 15.8-48.8 0-95.4-15.8-95.4-71.6 0-51.7 43.4-75.2 86.8-75.2 16.8 0 33.9 3.2 47.5 9zm0 91.1v-52.1c-9.9-4.5-25.3-8.1-40.2-8.1-29 0-45.2 14.5-45.2 34.9 0 22.2 20.8 30.3 43.4 30.3 16.2 0 31.2-2.2 42-5zm-375.7-278.7h123.9c73.7 0 110.8 53.5 110.8 105.6 0 53.5-37.1 104.3-110.3 104.3h-72.8v111h-51.6zm123.9 161.8c39.3 0 58.8-28.6 58.8-55.3 0-26.8-19.9-53.9-58.8-53.9h-72.3v109.2z"/></svg>